<svg width="22" height="22" viewBox="0 0 22 22" fill="none" xmlns="http://www.w3.org/2000/svg">
<path d="M14.0413 11.9096C13.9118 11.792 13.7417 11.7292 13.5669 11.7346C13.3921 11.74 13.2262 11.8131 13.1043 11.9386L11.4924 13.5963C11.1044 13.5222 10.3243 13.279 9.5214 12.4781C8.71847 11.6745 8.4753 10.8925 8.40322 10.5072L10.0596 8.89456C10.1852 8.77272 10.2584 8.60681 10.2638 8.43193C10.2692 8.25705 10.2064 8.08694 10.0886 7.95758L7.59962 5.22073C7.48177 5.09097 7.31797 5.01226 7.14302 5.00131C6.96807 4.99037 6.79574 5.04806 6.66264 5.16213L5.20092 6.4157C5.08447 6.53258 5.01495 6.68814 5.00558 6.85287C4.99547 7.02127 4.80282 11.0103 7.896 14.1049C10.5944 16.8026 13.9746 17 14.9055 17C15.0416 17 15.1251 16.996 15.1473 16.9946C15.312 16.9854 15.4675 16.9156 15.5838 16.7986L16.8367 15.3362C16.9509 15.2032 17.0087 15.0309 16.9979 14.856C16.987 14.681 16.9085 14.5172 16.7788 14.3992L14.0413 11.9096Z" fill="#0C5393"/>
<circle cx="11" cy="11" r="10.65" stroke="#0C5393" stroke-width="0.7"/>
</svg>
