<svg width="22" height="22" viewBox="0 0 22 22" fill="none" xmlns="http://www.w3.org/2000/svg">
<circle cx="11" cy="11" r="10.65" stroke="#0C5393" stroke-width="0.7"/>
<path d="M16.5728 6.33417C16.5198 6.32871 16.4664 6.32871 16.4134 6.33417H5.52447C5.45468 6.33525 5.38536 6.34571 5.31836 6.36529L10.9378 11.9614L16.5728 6.33417Z" fill="#135997"/>
<path d="M17.1483 6.87305L11.486 12.5119C11.3403 12.6568 11.1432 12.7381 10.9377 12.7381C10.7322 12.7381 10.5351 12.6568 10.3894 12.5119L4.77771 6.91582C4.76046 6.97923 4.75131 7.04456 4.75049 7.11027V14.888C4.75049 15.0943 4.83243 15.2922 4.97829 15.438C5.12416 15.5839 5.32199 15.6658 5.52827 15.6658H16.4172C16.6234 15.6658 16.8213 15.5839 16.9671 15.438C17.113 15.2922 17.1949 15.0943 17.1949 14.888V7.11027C17.1918 7.02925 17.1761 6.94921 17.1483 6.87305V6.87305ZM6.06104 14.888H5.52049V14.3319L8.34771 11.528L8.89604 12.0764L6.06104 14.888ZM16.4094 14.888H15.8649L13.0299 12.0764L13.5783 11.528L16.4055 14.3319L16.4094 14.888Z" fill="#135997"/>
</svg>
