<svg xmlns="http://www.w3.org/2000/svg" width="18.16666664459089" height="15.388888925681883" fill="none"><rect id="backgroundrect" width="100%" height="100%" x="0" y="0" fill="none" stroke="none" class="" style=""/>



<g class="currentLayer" style=""><title>Layer 1</title><path d="M0.6947677314186103,3.61112773141861 C0.6947677314186103,3.1691077314186105 0.8703677314186097,2.745177731418609 1.1829277314186095,2.4326177314186097 C1.4954877314186095,2.1200577314186093 1.9194077314186098,1.9444677314186096 2.3614377314186097,1.9444677314186096 H15.694777731418611 C16.13677773141861,1.9444677314186096 16.56067773141861,2.1200577314186093 16.87327773141861,2.4326177314186097 C17.18587773141861,2.745177731418609 17.36147773141861,3.1691077314186105 17.36147773141861,3.61112773141861 V11.94447773141861 C17.36147773141861,12.38647773141861 17.18587773141861,12.81037773141861 16.87327773141861,13.12297773141861 C16.56067773141861,13.43557773141861 16.13677773141861,13.611177731418609 15.694777731418611,13.611177731418609 H2.3614377314186097 C1.9194077314186098,13.611177731418609 1.4954877314186095,13.43557773141861 1.1829277314186095,13.12297773141861 C0.8703677314186097,12.81037773141861 0.6947677314186103,12.38647773141861 0.6947677314186103,11.94447773141861 V3.61112773141861 z" stroke="#156822" stroke-width="1.5" stroke-linecap="round" stroke-linejoin="round" id="svg_1" class=""/><path d="M8.749999940395355,10.138888835906982 C10.130699940395356,10.138888835906982 11.249999940395355,9.019588835906983 11.249999940395355,7.638888835906982 C11.249999940395355,6.258178835906982 10.130699940395356,5.138888835906982 8.749999940395355,5.138888835906982 C7.369289940395355,5.138888835906982 6.249999940395355,6.258178835906982 6.249999940395355,7.638888835906982 C6.249999940395355,9.019588835906983 7.369289940395355,10.138888835906982 8.749999940395355,10.138888835906982 z" stroke="#156822" stroke-width="1.5" stroke-linecap="round" stroke-linejoin="round" id="svg_2" class=""/><path d="M14.028077731418609,13.611177791023254 C14.028077731418609,12.727077791023255 14.37927773141861,11.879277791023254 15.004377731418609,11.254077791023255 C15.62957773141861,10.628977791023255 16.47737773141861,10.277777791023254 17.36147773141861,10.277777791023254 M0.6947677314186098,5.2777977910232545 C1.5788277314186097,5.2777977910232545 2.42666773141861,4.926607791023255 3.0517977314186098,4.301487791023255 C3.6769177314186097,3.676367791023255 4.02810773141861,2.8285177910232546 4.02810773141861,1.9444677910232546 L0.6947677314186098,5.2777977910232545 z" stroke="#156822" stroke-width="1.5" stroke-linecap="round" stroke-linejoin="round" id="svg_3" class=""/></g></svg>